<svg width="1280" height="720" viewBox="0 0 1280 720" fill="none" xmlns="http://www.w3.org/2000/svg">
<g clip-path="url(#clip0_1_5)">
<rect width="1280" height="720" rx="20" fill="url(#paint0_linear_1_5)"/>
<g style="mix-blend-mode:screen" filter="url(#filter0_f_1_5)">
<path d="M-34.7324 837.132C-19.1207 851.147 3.87418 849.005 16.628 832.347L173.907 626.917C186.661 610.259 184.344 585.393 168.733 571.377C153.121 557.362 130.126 559.504 117.372 576.163L-39.9071 781.592C-52.6609 798.25 -50.3441 823.116 -34.7324 837.132Z" fill="url(#paint1_radial_1_5)"/>
</g>
<g style="mix-blend-mode:screen" filter="url(#filter1_f_1_5)">
<path d="M-173.888 710.179C-74.4156 767.7 46.4149 730.297 95.994 626.636L123.229 569.693C172.808 466.033 132.361 335.37 32.8883 277.849C-66.5845 220.328 -187.415 257.731 -236.994 361.391L-264.229 418.334C-313.808 521.994 -273.361 652.658 -173.888 710.179Z" fill="url(#paint2_radial_1_5)"/>
</g>
<g style="mix-blend-mode:screen" filter="url(#filter2_f_1_5)">
<path d="M1695.42 1275.43C1828.14 1287.41 1937.01 1189.09 1938.59 1055.84L1945.95 433.353C1947.53 300.1 1841.21 182.37 1708.49 170.396L1146.38 119.682C1013.66 107.707 904.788 206.022 903.212 339.275L895.853 961.763C894.277 1095.02 1000.59 1212.74 1133.32 1224.72L1695.42 1275.43Z" fill="url(#paint3_radial_1_5)"/>
</g>
<g style="mix-blend-mode:overlay">
<path d="M8.06383 588.152C-0.881291 645.277 13.372 743.554 141.946 679.663C302.664 599.8 760.119 440.653 658.307 747.391" stroke="white" stroke-width="0.697114"/>
<path d="M520.315 -274.075C628.683 174.507 -162.899 -84.9769 41.1779 -17.7022C592.343 163.991 370.525 576.567 608.894 784.936" stroke="white" stroke-width="0.697114"/>
<path d="M12.9869 563.653C7.10765 633.596 -3.94148 718.878 126.819 659.353C299.626 588.629 734.139 446.665 643.468 750.839" stroke="white" stroke-width="0.697114"/>
<path d="M18.243 538.754C15.4779 621.504 -20.9224 693.886 112.04 638.718C296.973 577.087 708.61 452.394 629.07 753.962" stroke="white" stroke-width="0.697114"/>
<path d="M23.7823 513.503C24.1796 609.048 -37.6205 668.627 97.5621 617.807C294.654 565.223 683.482 457.885 615.062 756.807" stroke="white" stroke-width="0.697114"/>
<path d="M29.5632 487.938C33.1709 596.266 -54.0771 643.138 83.342 596.657C292.629 553.074 658.713 463.178 601.404 759.412" stroke="white" stroke-width="0.697114"/>
<path d="M35.551 462.09C42.4173 583.19 -70.3267 617.45 69.3457 575.3C290.862 540.673 634.27 468.302 588.061 761.808" stroke="white" stroke-width="0.697114"/>
<path d="M41.7171 435.987C51.8901 569.847 -86.3975 591.592 55.545 553.764C289.324 528.046 610.125 473.286 575.005 764.023" stroke="white" stroke-width="0.697114"/>
<path d="M48.0367 409.652C61.5645 556.26 -102.314 565.585 41.9152 532.071C287.992 515.215 586.252 478.152 562.211 766.079" stroke="white" stroke-width="0.697114"/>
<path d="M54.4888 383.103C71.4194 542.447 -118.098 539.45 28.4355 510.241C286.844 502.201 562.631 482.918 549.659 767.995" stroke="white" stroke-width="0.697114"/>
<path d="M61.0552 356.359C81.4367 528.426 -133.765 513.203 15.0879 488.29C285.863 489.019 539.245 487.602 537.33 769.788" stroke="white" stroke-width="0.697114"/>
<path d="M67.7204 329.434C91.6005 514.211 -149.333 486.859 1.85707 466.233C285.032 475.685 516.077 492.217 525.208 771.472" stroke="white" stroke-width="0.697114"/>
<path d="M74.47 302.339C101.897 499.815 -164.815 460.431 -11.271 444.083C284.337 462.211 493.115 496.776 513.281 773.059" stroke="white" stroke-width="0.697114"/>
<path d="M82.6764 276.406C113.698 486.567 -178.838 435.248 -22.9239 423.17C285.152 449.927 471.73 502.61 502.921 775.88" stroke="white" stroke-width="0.697114"/>
<path d="M97.6291 256.665C132.293 479.499 -186.113 416.342 -27.8119 408.524C292.764 443.863 457.213 514.747 499.416 784.964" stroke="white" stroke-width="0.697114"/>
<path d="M112.748 236.835C151.102 472.328 -193.22 397.43 -32.5151 393.863C300.595 437.738 442.983 526.906 496.188 794.029" stroke="white" stroke-width="0.697114"/>
<path d="M128.004 216.903C170.096 465.042 -200.187 378.501 -37.0616 379.177C308.616 431.54 429.013 539.075 493.207 803.064" stroke="white" stroke-width="0.697114"/>
<path d="M143.376 196.863C189.254 457.636 -207.035 359.549 -41.4729 364.457C316.805 425.262 415.281 551.247 490.453 812.062" stroke="white" stroke-width="0.697114"/>
<path d="M158.847 176.712C208.558 450.104 -213.78 340.57 -45.7653 349.702C325.146 418.9 401.77 563.419 487.909 821.019" stroke="white" stroke-width="0.697114"/>
<path d="M174.404 156.448C227.997 442.446 -220.437 321.561 -49.9523 334.908C333.625 412.452 388.468 575.588 485.561 829.932" stroke="white" stroke-width="0.697114"/>
<path d="M190.036 136.07C247.557 434.66 -227.015 302.523 -54.0448 320.075C342.232 405.918 375.364 587.752 483.399 838.801" stroke="white" stroke-width="0.697114"/>
<path d="M210.245 110.699C271.743 421.868 -229.012 278.576 -53.5392 300.324C355.469 394.419 366.961 595.034 485.926 842.747" stroke="white" stroke-width="0.697114"/>
<path d="M238.722 76.2687C304.244 400.002 -222.738 245.654 -44.7457 271.589C377.026 373.887 366.949 593.365 496.833 837.702" stroke="white" stroke-width="0.697114"/>
<path d="M267.147 41.7327C336.74 378.017 -216.511 212.711 -35.9839 242.823C398.584 353.277 367.009 591.699 507.799 832.62" stroke="white" stroke-width="0.697114"/>
<path d="M295.518 7.08939C369.23 355.91 -210.334 179.744 -27.2556 214.024C420.141 332.586 367.139 590.035 518.822 827.499" stroke="white" stroke-width="0.697114"/>
<path d="M323.831 -27.6631C401.71 333.679 -204.21 146.753 -18.5634 185.19C441.693 311.813 367.336 588.37 529.9 822.337" stroke="white" stroke-width="0.697114"/>
<path d="M352.086 -62.5261C434.178 311.324 -198.139 113.735 -9.90824 156.321C463.241 290.956 367.6 586.702 541.033 817.132" stroke="white" stroke-width="0.697114"/>
<path d="M380.281 -97.5005C466.634 288.842 -192.124 80.6896 -1.29199 127.415C484.781 270.014 367.93 585.03 552.217 811.883" stroke="white" stroke-width="0.697114"/>
<path d="M408.415 -132.587C499.076 266.234 -186.164 47.6165 7.28444 98.4712C506.313 248.986 368.323 583.353 563.453 806.589" stroke="white" stroke-width="0.697114"/>
<path d="M436.485 -167.787C531.502 243.497 -180.262 14.5143 15.8197 69.4888C527.836 227.87 368.779 581.669 574.739 801.249" stroke="white" stroke-width="0.697114"/>
<path d="M464.492 -203.1C563.912 220.632 -174.417 -18.6171 24.3134 40.4672C549.348 206.668 369.298 579.979 586.074 795.861" stroke="white" stroke-width="0.697114"/>
<path d="M492.434 -238.527C596.304 197.638 -168.632 -51.7785 32.7644 11.4059C570.849 185.377 369.878 578.281 597.457 790.426" stroke="white" stroke-width="0.697114"/>
</g>
<g filter="url(#filter3_d_1_5)">
<path fill-rule="evenodd" clip-rule="evenodd" d="M233.508 334.523L228.924 325.581L203.771 338.876C196.884 342.516 188.815 336.673 190.125 328.994L194.66 302.414L168.037 299C160.331 298.012 157.089 288.628 162.542 283.094L182.641 262.697L162.19 242.655C156.642 237.218 159.719 227.779 167.406 226.656L193.968 222.775L188.973 196.276C187.53 188.622 195.495 182.639 202.443 186.158L227.825 199.01L240.397 173.4C243.835 166.396 253.819 166.396 257.257 173.4L269.09 197.505L292.542 184.579C299.364 180.818 307.535 186.521 306.358 194.221L302.033 222.534L330.248 226.656C337.935 227.779 341.011 237.218 335.463 242.655L316.208 261.525L321.39 266.429C315.881 272.341 310.885 278.196 306.597 283.817L285.032 282.13C280.811 281.8 276.686 283.518 273.955 286.745L233.508 334.523Z" fill="url(#paint4_linear_1_5)"/>
</g>
<g filter="url(#filter4_d_1_5)">
<path fill-rule="evenodd" clip-rule="evenodd" d="M433.947 312.728C427.069 329.232 419.199 344.691 411.246 356.956L420.365 376.857C422.122 380.692 421.913 385.139 419.804 388.799L386.314 446.907C388.337 447.347 390.551 447.119 392.654 446.008L426.705 428.01L460.755 446.008C467.642 449.648 475.711 443.804 474.401 436.126L467.885 397.93L495.534 370.834C501.082 365.396 498.005 355.957 490.318 354.834L452.155 349.259L435.135 314.586C434.798 313.899 434.398 313.28 433.947 312.728Z" fill="url(#paint5_linear_1_5)"/>
</g>
<g filter="url(#filter5_d_1_5)">
<path fill-rule="evenodd" clip-rule="evenodd" d="M411.245 356.956C442.162 309.281 471.831 213.318 446.787 195.447C421.368 178.176 341.095 238.603 306.597 283.817L285.032 282.13C280.811 281.8 276.686 283.518 273.955 286.745L215.727 355.526C213.796 357.808 215.685 361.259 218.655 360.874L258.533 355.704C256.024 360.966 254.812 364.949 254.901 367.757C255.013 371.259 258.479 376.649 263.432 382.53C256.75 391.147 253.412 404.511 253.265 408.631C253.039 414.975 265.396 428.698 277.706 437.026C290.016 445.355 306.963 452.548 312.872 450.163C316.755 448.596 328.449 440.734 334.225 431.389C340.928 433.709 346.668 434.881 349.813 433.851C352.485 432.977 355.816 430.494 359.904 426.374L368.788 465.913C369.442 468.823 373.346 469.408 374.837 466.82L419.804 388.799C421.913 385.139 422.122 380.692 420.364 376.857L411.245 356.956Z" fill="white" fill-opacity="0.1"/>
</g>
<mask id="mask0_1_5" style="mask-type:alpha" maskUnits="userSpaceOnUse" x="214" y="192" width="243" height="277">
<path fill-rule="evenodd" clip-rule="evenodd" d="M411.245 356.956C442.162 309.281 471.831 213.318 446.787 195.447C421.368 178.176 341.095 238.603 306.597 283.817L285.032 282.13C280.811 281.8 276.686 283.518 273.955 286.745L215.727 355.526C213.796 357.808 215.685 361.259 218.655 360.874L258.533 355.704C256.024 360.966 254.812 364.949 254.901 367.757C255.013 371.259 258.479 376.649 263.432 382.53C256.75 391.147 253.412 404.511 253.265 408.631C253.039 414.975 265.396 428.698 277.706 437.026C290.016 445.355 306.963 452.548 312.872 450.163C316.755 448.596 328.449 440.734 334.225 431.389C340.928 433.709 346.668 434.881 349.813 433.851C352.485 432.977 355.816 430.494 359.904 426.374L368.788 465.913C369.442 468.823 373.346 469.408 374.837 466.82L419.804 388.799C421.913 385.139 422.122 380.692 420.364 376.857L411.245 356.956Z" fill="white"/>
</mask>
<g mask="url(#mask0_1_5)">
<g filter="url(#filter6_f_1_5)">
<path fill-rule="evenodd" clip-rule="evenodd" d="M242.751 366.887L261.512 327.943L299.36 347.852C306.249 351.476 314.303 345.627 312.988 337.954L307.663 306.888L350.707 298.746C358.215 297.326 360.974 288.01 355.45 282.73L323.563 252.255C318.287 258.172 313.433 264.012 309.112 269.675L277.658 267.215C273.437 266.885 269.312 268.603 266.581 271.83L196.172 355.001L204.413 371.857L242.751 366.887Z" fill="#2313FF"/>
</g>
<g filter="url(#filter7_f_1_5)">
<path fill-rule="evenodd" clip-rule="evenodd" d="M469.977 267.107C458.158 295.457 444.636 322.012 430.972 343.082L448.666 381.697C450.424 385.532 450.215 389.978 448.105 393.638L383.747 505.307C377.463 506.863 371.118 501.459 372.291 494.585L385.901 414.805L328.202 358.26C322.654 352.822 325.73 343.383 333.417 342.26L413.109 330.618L448.701 258.111C452.139 251.108 462.123 251.108 465.561 258.111L469.977 267.107Z" fill="#FFB334"/>
</g>
<path opacity="0.396583" fill-rule="evenodd" clip-rule="evenodd" d="M485.122 138.462L592.486 214.044L361.584 545.582L254.22 470L485.122 138.462Z" fill="#00081B"/>
<g opacity="0.600153" filter="url(#filter8_f_1_5)">
<path d="M437.494 195.43C434.456 195.43 381.322 206.286 357.917 239.017C334.512 271.748 320.673 287.482 288.799 287.482C256.925 287.482 218.4 356.14 218.4 356.14C218.4 356.14 262.519 356.927 262.519 370.359C262.519 383.791 260.529 416.102 260.529 420.637" stroke="white" stroke-width="18.7819" stroke-linecap="round"/>
</g>
</g>
<path fill-rule="evenodd" clip-rule="evenodd" d="M306.597 283.817L285.032 282.13C280.811 281.8 276.686 283.518 273.955 286.745L215.727 355.526C213.796 357.808 215.685 361.259 218.655 360.874L258.533 355.704C265.077 341.98 280.435 319.562 304.491 286.636C305.172 285.703 305.874 284.763 306.597 283.817Z" fill="white" fill-opacity="0.1"/>
<path fill-rule="evenodd" clip-rule="evenodd" d="M359.904 426.374L368.788 465.913C369.442 468.823 373.346 469.408 374.837 466.82L419.804 388.799C421.913 385.139 422.122 380.692 420.365 376.857L411.245 356.956C410.638 357.892 410.031 358.809 409.423 359.707C386.541 393.522 370.621 415.574 359.904 426.374Z" fill="black" fill-opacity="0.3"/>
<mask id="path-47-outside-1_1_5" maskUnits="userSpaceOnUse" x="189.68" y="144.852" width="352.912" height="348.129" fill="black">
<rect fill="white" x="189.68" y="144.852" width="352.912" height="348.129"/>
<path fill-rule="evenodd" clip-rule="evenodd" d="M411.245 356.956C442.162 309.281 471.831 213.318 446.787 195.447C421.368 178.176 341.095 238.603 306.597 283.817L285.032 282.13C280.811 281.8 276.686 283.518 273.955 286.745L215.727 355.526C213.796 357.808 215.685 361.259 218.655 360.874L258.533 355.704C256.024 360.966 254.812 364.949 254.901 367.757C255.013 371.259 258.479 376.649 263.432 382.53C256.75 391.147 253.412 404.511 253.265 408.631C253.039 414.975 265.396 428.698 277.706 437.026C290.016 445.355 306.963 452.548 312.872 450.163C316.755 448.596 328.449 440.734 334.225 431.389C340.928 433.709 346.668 434.881 349.813 433.851C352.485 432.977 355.816 430.494 359.904 426.374L368.788 465.913C369.442 468.823 373.346 469.408 374.837 466.82L419.804 388.799C421.913 385.139 422.122 380.692 420.364 376.857L411.245 356.956Z"/>
</mask>
<path fill-rule="evenodd" clip-rule="evenodd" d="M411.245 356.956C442.162 309.281 471.831 213.318 446.787 195.447C421.368 178.176 341.095 238.603 306.597 283.817L285.032 282.13C280.811 281.8 276.686 283.518 273.955 286.745L215.727 355.526C213.796 357.808 215.685 361.259 218.655 360.874L258.533 355.704C256.024 360.966 254.812 364.949 254.901 367.757C255.013 371.259 258.479 376.649 263.432 382.53C256.75 391.147 253.412 404.511 253.265 408.631C253.039 414.975 265.396 428.698 277.706 437.026C290.016 445.355 306.963 452.548 312.872 450.163C316.755 448.596 328.449 440.734 334.225 431.389C340.928 433.709 346.668 434.881 349.813 433.851C352.485 432.977 355.816 430.494 359.904 426.374L368.788 465.913C369.442 468.823 373.346 469.408 374.837 466.82L419.804 388.799C421.913 385.139 422.122 380.692 420.364 376.857L411.245 356.956Z" fill="white" fill-opacity="0.1"/>
<path d="M446.787 195.447L448.312 193.649L448.29 193.633L448.268 193.618L446.787 195.447ZM411.245 356.956L409.163 355.839L408.516 356.837L408.995 357.884L411.245 356.956ZM306.597 283.817L306.322 286.062L307.742 286.173L308.577 285.079L306.597 283.817ZM285.032 282.13L285.307 279.885L285.307 279.885L285.032 282.13ZM273.955 286.745L272.05 285.389L272.05 285.389L273.955 286.745ZM215.727 355.526L213.822 354.17L213.822 354.17L215.727 355.526ZM218.655 360.874L218.384 358.643L218.655 360.874ZM258.533 355.704L260.761 356.562L262.495 352.924L258.263 353.473L258.533 355.704ZM254.901 367.757L252.464 367.889L252.464 367.889L254.901 367.757ZM263.432 382.53L265.4 383.806L266.474 382.422L265.372 381.114L263.432 382.53ZM253.265 408.631L250.828 408.621L250.828 408.621L253.265 408.631ZM312.872 450.163L313.794 452.224L312.872 450.163ZM334.225 431.389L335.138 429.276L333.177 428.598L332.116 430.315L334.225 431.389ZM349.813 433.851L350.568 435.973L349.813 433.851ZM359.904 426.374L362.292 425.856L361.344 421.637L358.128 424.878L359.904 426.374ZM368.788 465.913L371.176 465.395L368.788 465.913ZM374.837 466.82L372.692 465.806L372.692 465.806L374.837 466.82ZM419.804 388.799L417.658 387.785L419.804 388.799ZM420.364 376.857L418.114 377.785L420.364 376.857ZM445.262 197.244C450.603 201.056 453.453 209.456 453.709 221.626C453.96 233.619 451.679 248.575 447.628 264.572C439.524 296.567 424.464 332.244 409.163 355.839L413.328 358.072C428.944 333.993 444.176 297.851 452.375 265.478C456.475 249.291 458.848 233.925 458.585 221.409C458.326 209.07 455.493 198.773 448.312 193.649L445.262 197.244ZM308.577 285.079C325.646 262.708 354.133 236.475 381.498 218.006C395.184 208.769 408.462 201.561 419.791 197.723C431.278 193.832 439.982 193.658 445.306 197.275L448.268 193.618C440.883 188.6 430.02 189.503 418.229 193.498C406.279 197.546 392.567 205.032 378.695 214.394C350.944 233.125 322.045 259.712 304.617 282.554L308.577 285.079ZM306.872 281.572L285.307 279.885L284.757 284.375L306.322 286.062L306.872 281.572ZM285.307 279.885C280.224 279.487 275.287 281.566 272.05 285.389L275.859 288.101C278.086 285.47 281.398 284.112 284.757 284.375L285.307 279.885ZM272.05 285.389L213.822 354.17L217.632 356.882L275.859 288.101L272.05 285.389ZM213.822 354.17C212.178 356.113 212.209 358.507 213.17 360.263C214.134 362.022 216.227 363.455 218.925 363.105L218.384 358.643C218.113 358.678 217.777 358.578 217.536 358.138C217.293 357.693 217.345 357.221 217.632 356.882L213.822 354.17ZM218.925 363.105L258.804 357.935L258.263 353.473L218.384 358.643L218.925 363.105ZM257.339 367.626C257.266 365.357 258.275 361.775 260.761 356.562L256.306 354.845C253.774 360.156 252.357 364.541 252.464 367.889L257.339 367.626ZM265.372 381.114C262.937 378.223 260.914 375.506 259.496 373.123C258.041 370.677 257.378 368.832 257.339 367.626L252.464 367.889C252.537 370.184 253.663 372.786 255.206 375.38C256.787 378.038 258.973 380.955 261.491 383.945L265.372 381.114ZM255.703 408.641C255.766 406.876 256.565 402.731 258.221 397.889C259.869 393.075 262.276 387.836 265.4 383.806L261.463 381.253C257.906 385.84 255.303 391.592 253.574 396.644C251.855 401.669 250.912 406.265 250.828 408.621L255.703 408.641ZM279.183 435.195C273.198 431.146 267.177 425.764 262.699 420.639C260.461 418.077 258.648 415.625 257.421 413.477C256.154 411.259 255.667 409.631 255.703 408.641L250.828 408.621C250.75 410.803 251.722 413.269 253.093 415.669C254.504 418.139 256.508 420.827 258.869 423.53C263.591 428.934 269.904 434.578 276.229 438.857L279.183 435.195ZM311.95 448.103C311.192 448.409 309.646 448.525 307.147 448.076C304.753 447.646 301.862 446.769 298.692 445.533C292.361 443.063 285.205 439.269 279.183 435.195L276.229 438.857C282.517 443.112 289.989 447.079 296.687 449.692C300.032 450.997 303.254 451.992 306.084 452.5C308.81 452.99 311.598 453.11 313.794 452.224L311.95 448.103ZM332.116 430.315C329.419 434.676 325.277 438.78 321.265 442.014C317.217 445.277 313.55 447.457 311.95 448.103L313.794 452.224C316.077 451.302 320.198 448.768 324.412 445.372C328.661 441.947 333.254 437.446 336.334 432.463L332.116 430.315ZM349.058 431.73C348.116 432.038 346.421 432.096 343.862 431.66C341.386 431.238 338.42 430.412 335.138 429.276L333.312 433.502C336.733 434.686 339.988 435.606 342.844 436.092C345.618 436.565 348.364 436.694 350.568 435.973L349.058 431.73ZM358.128 424.878C354.065 428.972 351.096 431.063 349.058 431.73L350.568 435.973C353.874 434.891 357.567 432.016 361.68 427.871L358.128 424.878ZM357.515 426.893L366.399 466.431L371.176 465.395L362.292 425.856L357.515 426.893ZM366.399 466.431C366.927 468.78 368.834 470.322 371.041 470.652C373.275 470.987 375.706 470.049 376.983 467.834L372.692 465.806C372.561 466.033 372.426 466.12 372.338 466.159C372.238 466.204 372.108 466.227 371.956 466.204C371.674 466.162 371.302 465.956 371.176 465.395L366.399 466.431ZM376.983 467.834L421.949 389.813L417.658 387.785L372.692 465.806L376.983 467.834ZM421.949 389.813C424.42 385.526 424.647 380.365 422.614 375.929L418.114 377.785C419.596 381.02 419.406 384.752 417.658 387.785L421.949 389.813ZM422.614 375.929L413.495 356.027L408.995 357.884L418.114 377.785L422.614 375.929Z" fill="url(#paint6_linear_1_5)" mask="url(#path-47-outside-1_1_5)"/>
<ellipse cx="387.668" cy="279.399" rx="22.9369" ry="22.9055" transform="rotate(35 387.668 279.399)" fill="url(#paint7_linear_1_5)"/>
<path fill-rule="evenodd" clip-rule="evenodd" d="M305.042 394.236C297.63 389.046 295.829 378.83 301.018 371.418L333.512 325.012C338.702 317.6 348.918 315.799 356.33 320.989C363.742 326.179 365.543 336.395 360.353 343.807L327.86 390.212C322.67 397.624 312.454 399.425 305.042 394.236Z" fill="url(#paint8_linear_1_5)"/>
<g filter="url(#filter9_d_1_5)">
<path fill-rule="evenodd" clip-rule="evenodd" d="M185.319 465.924C182.802 472.516 181.673 479.462 181.973 486.555L182.222 492.366C182.274 493.21 183.154 493.741 183.91 493.376L189.121 490.845C192.384 489.252 196.403 488.315 201.023 488.065C201.323 488.054 201.53 488.179 201.655 488.284C201.779 488.388 201.934 488.586 201.945 488.888C201.965 489.158 201.851 489.419 201.655 489.596C195.035 495.48 189.866 504.426 186.293 516.226C183.309 526.015 183.04 535.721 185.443 545.094L187.204 551.926C187.432 552.822 188.582 553.103 189.204 552.416L193.948 547.188C197.19 543.616 200.588 540.991 204.016 539.419C208.212 537.492 212.687 536.284 217.327 535.826C220.58 535.513 223.833 535.555 227.023 535.971C234.73 536.992 242.685 536.221 249.999 533.763C257.384 531.274 264.2 527.025 269.732 521.464C274.621 516.548 278.392 510.82 280.95 504.416C283.405 498.24 284.648 491.699 284.617 485.003C284.576 478.296 283.291 471.756 280.764 465.57C278.153 459.154 274.341 453.406 269.421 448.459C264.501 443.512 258.783 439.679 252.412 437.044C246.259 434.503 239.754 433.191 233.083 433.17C226.412 433.129 219.907 434.378 213.774 436.857C207.404 439.429 201.706 443.22 196.817 448.136C191.762 453.218 187.888 459.196 185.319 465.924Z" fill="url(#paint9_radial_1_5)"/>
</g>
<g style="mix-blend-mode:screen" filter="url(#filter10_f_1_5)">
<path d="M608.63 490.812C607.73 500.649 615.007 508.729 624.885 508.858L1006.76 513.862C1016.64 513.991 1025.38 506.121 1026.28 496.284V496.284C1027.18 486.447 1019.9 478.367 1010.02 478.238L628.145 473.234C618.267 473.105 609.53 480.975 608.63 490.812V490.812Z" fill="url(#paint10_radial_1_5)"/>
</g>
<g filter="url(#filter11_ddd_1_5)">
<g filter="url(#filter12_b_1_5)">
<rect x="659.889" y="411" width="323.63" height="68" rx="15" fill="#041B41"/>
<rect x="661.778" y="412.889" width="319.852" height="64.2222" rx="13.1111" stroke="url(#paint11_linear_1_5)" stroke-width="3.77778"/>
</g>
<g filter="url(#filter13_d_1_5)">
<path d="M698.316 436.554V453.889H696.053V436.554H698.316ZM720.901 453.889H718.638L709.535 440.086V453.889H707.272V436.529H709.535L718.638 450.307V436.529H720.901V453.889ZM732.121 436.554V453.889H729.858V436.554H732.121ZM740.231 445.209C740.231 443.518 740.613 442.001 741.375 440.658C742.138 439.298 743.174 438.237 744.484 437.474C745.811 436.711 747.278 436.33 748.886 436.33C750.777 436.33 752.426 436.786 753.836 437.698C755.245 438.61 756.273 439.903 756.92 441.578H754.209C753.728 440.533 753.031 439.729 752.12 439.165C751.224 438.602 750.146 438.32 748.886 438.32C747.676 438.32 746.59 438.602 745.628 439.165C744.667 439.729 743.912 440.533 743.365 441.578C742.818 442.606 742.544 443.816 742.544 445.209C742.544 446.585 742.818 447.796 743.365 448.84C743.912 449.868 744.667 450.664 745.628 451.228C746.59 451.791 747.676 452.073 748.886 452.073C750.146 452.073 751.224 451.8 752.12 451.253C753.031 450.689 753.728 449.885 754.209 448.84H756.92C756.273 450.498 755.245 451.783 753.836 452.695C752.426 453.59 750.777 454.038 748.886 454.038C747.278 454.038 745.811 453.665 744.484 452.919C743.174 452.156 742.138 451.103 741.375 449.76C740.613 448.417 740.231 446.9 740.231 445.209ZM767.65 436.554V453.889H765.387V436.554H767.65ZM786.853 450.034H779.292L777.899 453.889H775.512L781.779 436.653H784.391L790.633 453.889H788.246L786.853 450.034ZM786.206 448.193L783.073 439.439L779.939 448.193H786.206ZM807.591 453.889L803.462 446.801H800.726V453.889H798.463V436.554H804.059C805.369 436.554 806.472 436.778 807.367 437.225C808.279 437.673 808.959 438.278 809.406 439.041C809.854 439.804 810.078 440.674 810.078 441.652C810.078 442.846 809.73 443.899 809.033 444.811C808.353 445.723 807.325 446.328 805.949 446.627L810.302 453.889H807.591ZM800.726 444.985H804.059C805.286 444.985 806.206 444.687 806.82 444.09C807.433 443.476 807.74 442.664 807.74 441.652C807.74 440.624 807.433 439.829 806.82 439.265C806.223 438.701 805.303 438.419 804.059 438.419H800.726V444.985ZM840.669 450.034H833.108L831.715 453.889H829.328L835.595 436.653H838.207L844.449 453.889H842.062L840.669 450.034ZM840.022 448.193L836.889 439.439L833.755 448.193H840.022ZM865.908 453.889H863.645L854.542 440.086V453.889H852.279V436.529H854.542L863.645 450.307V436.529H865.908V453.889ZM885.112 450.034H877.551L876.158 453.889H873.771L880.038 436.653H882.649L888.892 453.889H886.504L885.112 450.034ZM884.465 448.193L881.331 439.439L878.198 448.193H884.465ZM883.769 432.799L878.471 435.634V433.943L883.769 430.834V432.799ZM898.985 452.048H905.054V453.889H896.722V436.554H898.985V452.048ZM914.819 436.554V453.889H912.556V436.554H914.819ZM929.271 454.063C928.127 454.063 927.099 453.864 926.187 453.466C925.292 453.052 924.587 452.488 924.073 451.775C923.559 451.045 923.294 450.208 923.277 449.263H925.69C925.773 450.075 926.104 450.763 926.685 451.327C927.282 451.874 928.144 452.148 929.271 452.148C930.349 452.148 931.195 451.883 931.808 451.352C932.438 450.805 932.753 450.109 932.753 449.263C932.753 448.6 932.571 448.061 932.206 447.646C931.841 447.232 931.385 446.917 930.838 446.701C930.291 446.486 929.553 446.254 928.625 446.005C927.481 445.706 926.56 445.408 925.864 445.11C925.184 444.811 924.596 444.347 924.098 443.717C923.617 443.07 923.377 442.208 923.377 441.13C923.377 440.185 923.617 439.348 924.098 438.618C924.579 437.889 925.25 437.325 926.113 436.927C926.991 436.529 927.995 436.33 929.122 436.33C930.747 436.33 932.073 436.736 933.101 437.549C934.146 438.361 934.735 439.439 934.867 440.782H932.38C932.297 440.119 931.949 439.538 931.336 439.041C930.722 438.527 929.91 438.27 928.898 438.27C927.953 438.27 927.182 438.519 926.585 439.016C925.988 439.497 925.69 440.177 925.69 441.056C925.69 441.686 925.864 442.2 926.212 442.598C926.577 442.996 927.016 443.302 927.53 443.518C928.061 443.717 928.799 443.949 929.744 444.214C930.888 444.529 931.808 444.844 932.504 445.159C933.201 445.458 933.798 445.93 934.295 446.577C934.793 447.207 935.041 448.069 935.041 449.163C935.041 450.009 934.817 450.805 934.37 451.551C933.922 452.297 933.259 452.902 932.38 453.367C931.501 453.831 930.465 454.063 929.271 454.063ZM945.734 438.394V444.189H952.051V446.055H945.734V452.024H952.797V453.889H943.47V436.529H952.797V438.394H945.734Z" fill="white"/>
</g>
</g>
<g filter="url(#filter14_d_1_5)">
<path d="M642.459 214.659C648.279 214.659 652.895 216.421 656.309 219.947C659.778 223.472 661.513 228.369 661.513 234.636V262H647.244V236.567C647.244 233.545 646.432 231.222 644.809 229.6C643.243 227.921 641.06 227.081 638.262 227.081C635.464 227.081 633.254 227.921 631.631 229.6C630.064 231.222 629.281 233.545 629.281 236.567V262H615.011V236.567C615.011 233.545 614.2 231.222 612.577 229.6C611.01 227.921 608.828 227.081 606.03 227.081C603.232 227.081 601.021 227.921 599.399 229.6C597.832 231.222 597.048 233.545 597.048 236.567V262H582.695V215.162H597.048V221.038C598.503 219.079 600.406 217.54 602.756 216.421C605.106 215.246 607.764 214.659 610.73 214.659C614.256 214.659 617.389 215.414 620.131 216.925C622.929 218.436 625.112 220.59 626.679 223.388C628.301 220.814 630.512 218.716 633.31 217.093C636.108 215.47 639.158 214.659 642.459 214.659ZM673.734 238.497C673.734 233.685 674.629 229.46 676.42 225.822C678.267 222.185 680.757 219.387 683.891 217.429C687.024 215.47 690.522 214.491 694.383 214.491C697.685 214.491 700.567 215.162 703.029 216.505C705.547 217.848 707.478 219.611 708.821 221.793V215.162H723.174V262H708.821V255.369C707.422 257.551 705.463 259.314 702.945 260.657C700.483 262 697.601 262.672 694.299 262.672C690.494 262.672 687.024 261.692 683.891 259.734C680.757 257.719 678.267 254.893 676.42 251.256C674.629 247.563 673.734 243.31 673.734 238.497ZM708.821 238.581C708.821 235 707.813 232.174 705.799 230.103C703.84 228.033 701.434 226.998 698.58 226.998C695.726 226.998 693.292 228.033 691.277 230.103C689.319 232.118 688.339 234.916 688.339 238.497C688.339 242.079 689.319 244.932 691.277 247.059C693.292 249.129 695.726 250.165 698.58 250.165C701.434 250.165 703.84 249.129 705.799 247.059C707.813 244.988 708.821 242.162 708.821 238.581ZM752.948 222.968C754.627 220.394 756.725 218.38 759.243 216.925C761.762 215.414 764.56 214.659 767.637 214.659V229.851H763.692C760.111 229.851 757.425 230.635 755.634 232.202C753.843 233.713 752.948 236.399 752.948 240.26V262H738.595V215.162H752.948V222.968ZM808.157 262L793.888 242.358V262H779.534V199.885H793.888V234.216L808.073 215.162H825.785L806.311 238.665L825.952 262H808.157ZM880.61 237.826C880.61 239.169 880.526 240.568 880.358 242.023H847.874C848.098 244.932 849.021 247.171 850.644 248.738C852.323 250.249 854.365 251.004 856.772 251.004C860.353 251.004 862.843 249.493 864.242 246.471H879.519C878.736 249.549 877.309 252.319 875.238 254.781C873.224 257.243 870.678 259.174 867.6 260.573C864.522 261.972 861.081 262.672 857.275 262.672C852.687 262.672 848.602 261.692 845.02 259.734C841.439 257.775 838.641 254.977 836.626 251.34C834.612 247.702 833.605 243.45 833.605 238.581C833.605 233.713 834.584 229.46 836.542 225.822C838.557 222.185 841.355 219.387 844.936 217.429C848.518 215.47 852.631 214.491 857.275 214.491C861.808 214.491 865.837 215.442 869.363 217.345C872.888 219.247 875.63 221.961 877.589 225.487C879.603 229.012 880.61 233.125 880.61 237.826ZM865.921 234.048C865.921 231.586 865.082 229.628 863.403 228.173C861.724 226.718 859.626 225.99 857.107 225.99C854.701 225.99 852.659 226.69 850.98 228.089C849.357 229.488 848.35 231.474 847.958 234.048H865.921ZM919.324 249.829V262H912.021C906.817 262 902.76 260.741 899.85 258.223C896.94 255.649 895.485 251.48 895.485 245.716V227.081H889.777V215.162H895.485V203.747H909.839V215.162H919.24V227.081H909.839V245.884C909.839 247.283 910.174 248.29 910.846 248.906C911.517 249.521 912.637 249.829 914.203 249.829H919.324ZM939.574 210.294C937.056 210.294 934.985 209.566 933.363 208.111C931.796 206.6 931.012 204.754 931.012 202.571C931.012 200.333 931.796 198.486 933.363 197.031C934.985 195.521 937.056 194.765 939.574 194.765C942.036 194.765 944.051 195.521 945.618 197.031C947.24 198.486 948.052 200.333 948.052 202.571C948.052 204.754 947.24 206.6 945.618 208.111C944.051 209.566 942.036 210.294 939.574 210.294ZM946.709 215.162V262H932.355V215.162H946.709ZM990.686 214.659C996.17 214.659 1000.53 216.449 1003.78 220.031C1007.08 223.556 1008.73 228.425 1008.73 234.636V262H994.463V236.567C994.463 233.433 993.652 230.999 992.029 229.264C990.406 227.529 988.224 226.662 985.482 226.662C982.74 226.662 980.558 227.529 978.935 229.264C977.312 230.999 976.5 233.433 976.5 236.567V262H962.147V215.162H976.5V221.374C977.955 219.303 979.914 217.68 982.376 216.505C984.838 215.274 987.608 214.659 990.686 214.659ZM1041.54 214.491C1044.84 214.491 1047.72 215.162 1050.18 216.505C1052.7 217.848 1054.63 219.611 1055.98 221.793V215.162H1070.33V261.916C1070.33 266.225 1069.46 270.114 1067.73 273.584C1066.05 277.109 1063.45 279.907 1059.92 281.977C1056.45 284.048 1052.11 285.083 1046.91 285.083C1039.97 285.083 1034.35 283.432 1030.04 280.131C1025.73 276.885 1023.27 272.464 1022.65 266.868H1036.84C1037.29 268.659 1038.35 270.058 1040.03 271.065C1041.71 272.129 1043.78 272.66 1046.24 272.66C1049.2 272.66 1051.56 271.793 1053.29 270.058C1055.08 268.379 1055.98 265.665 1055.98 261.916V255.285C1054.58 257.467 1052.65 259.258 1050.18 260.657C1047.72 262 1044.84 262.672 1041.54 262.672C1037.68 262.672 1034.18 261.692 1031.05 259.734C1027.91 257.719 1025.42 254.893 1023.58 251.256C1021.78 247.563 1020.89 243.31 1020.89 238.497C1020.89 233.685 1021.78 229.46 1023.58 225.822C1025.42 222.185 1027.91 219.387 1031.05 217.429C1034.18 215.47 1037.68 214.491 1041.54 214.491ZM1055.98 238.581C1055.98 235 1054.97 232.174 1052.95 230.103C1051 228.033 1048.59 226.998 1045.74 226.998C1042.88 226.998 1040.45 228.033 1038.43 230.103C1036.47 232.118 1035.49 234.916 1035.49 238.497C1035.49 242.079 1036.47 244.932 1038.43 247.059C1040.45 249.129 1042.88 250.165 1045.74 250.165C1048.59 250.165 1051 249.129 1052.95 247.059C1054.97 244.988 1055.98 242.162 1055.98 238.581ZM619.381 340.833C619.381 336.132 620.332 332.019 622.234 328.494C624.137 324.913 626.739 322.143 630.041 320.184C633.398 318.225 637.12 317.246 641.205 317.246C645.234 317.246 648.731 318.113 651.697 319.848C654.663 321.583 656.873 323.765 658.328 326.395V318.002H666.05V364H658.328V355.438C656.817 358.124 654.551 360.363 651.529 362.153C648.563 363.888 645.094 364.755 641.121 364.755C637.036 364.755 633.342 363.748 630.041 361.734C626.739 359.719 624.137 356.893 622.234 353.256C620.332 349.618 619.381 345.478 619.381 340.833ZM658.328 340.917C658.328 337.447 657.629 334.426 656.23 331.851C654.831 329.277 652.928 327.319 650.522 325.976C648.172 324.577 645.569 323.877 642.716 323.877C639.862 323.877 637.26 324.549 634.909 325.892C632.559 327.235 630.684 329.193 629.285 331.768C627.886 334.342 627.187 337.363 627.187 340.833C627.187 344.358 627.886 347.436 629.285 350.066C630.684 352.64 632.559 354.627 634.909 356.026C637.26 357.369 639.862 358.04 642.716 358.04C645.569 358.04 648.172 357.369 650.522 356.026C652.928 354.627 654.831 352.64 656.23 350.066C657.629 347.436 658.328 344.386 658.328 340.917ZM706.407 317.162C712.003 317.162 716.535 318.869 720.005 322.282C723.474 325.64 725.209 330.508 725.209 336.888V364H717.654V337.979C717.654 333.39 716.507 329.893 714.213 327.487C711.919 325.024 708.785 323.793 704.812 323.793C700.783 323.793 697.565 325.052 695.159 327.571C692.809 330.089 691.633 333.754 691.633 338.567V364H683.995V318.002H691.633V324.549C693.144 322.199 695.187 320.38 697.761 319.093C700.391 317.806 703.273 317.162 706.407 317.162ZM739.869 340.833C739.869 336.132 740.82 332.019 742.723 328.494C744.625 324.913 747.227 322.143 750.529 320.184C753.886 318.225 757.608 317.246 761.693 317.246C765.722 317.246 769.219 318.113 772.185 319.848C775.151 321.583 777.361 323.765 778.816 326.395V318.002H786.539V364H778.816V355.438C777.305 358.124 775.039 360.363 772.017 362.153C769.051 363.888 765.582 364.755 761.609 364.755C757.524 364.755 753.83 363.748 750.529 361.734C747.227 359.719 744.625 356.893 742.723 353.256C740.82 349.618 739.869 345.478 739.869 340.833ZM778.816 340.917C778.816 337.447 778.117 334.426 776.718 331.851C775.319 329.277 773.416 327.319 771.01 325.976C768.66 324.577 766.058 323.877 763.204 323.877C760.35 323.877 757.748 324.549 755.397 325.892C753.047 327.235 751.172 329.193 749.773 331.768C748.374 334.342 747.675 337.363 747.675 340.833C747.675 344.358 748.374 347.436 749.773 350.066C751.172 352.64 753.047 354.627 755.397 356.026C757.748 357.369 760.35 358.04 763.204 358.04C766.058 358.04 768.66 357.369 771.01 356.026C773.416 354.627 775.319 352.64 776.718 350.066C778.117 347.436 778.816 344.386 778.816 340.917ZM812.122 301.885V364H804.483V301.885H812.122ZM869.795 318.002L842.096 385.656H834.205L843.271 363.496L824.72 318.002H833.198L847.636 355.27L861.905 318.002H869.795ZM891.827 324.297V351.409C891.827 353.648 892.303 355.242 893.254 356.194C894.206 357.089 895.856 357.537 898.207 357.537H903.831V364H896.948C892.695 364 889.505 363.021 887.379 361.062C885.252 359.104 884.189 355.886 884.189 351.409V324.297H878.229V318.002H884.189V306.418H891.827V318.002H903.831V324.297H891.827ZM922.067 310.531C920.612 310.531 919.381 310.027 918.374 309.02C917.366 308.013 916.863 306.782 916.863 305.327C916.863 303.872 917.366 302.641 918.374 301.634C919.381 300.626 920.612 300.123 922.067 300.123C923.466 300.123 924.641 300.626 925.592 301.634C926.6 302.641 927.103 303.872 927.103 305.327C927.103 306.782 926.6 308.013 925.592 309.02C924.641 310.027 923.466 310.531 922.067 310.531ZM925.76 318.002V364H918.122V318.002H925.76ZM940.961 340.917C940.961 336.16 941.912 332.019 943.815 328.494C945.717 324.913 948.348 322.143 951.705 320.184C955.119 318.225 959.008 317.246 963.373 317.246C969.024 317.246 973.669 318.617 977.306 321.359C981 324.101 983.434 327.906 984.609 332.775H976.383C975.6 329.977 974.061 327.766 971.766 326.144C969.528 324.521 966.73 323.709 963.373 323.709C959.008 323.709 955.482 325.22 952.796 328.242C950.11 331.208 948.767 335.433 948.767 340.917C948.767 346.457 950.11 350.738 952.796 353.759C955.482 356.781 959.008 358.292 963.373 358.292C966.73 358.292 969.528 357.509 971.766 355.942C974.005 354.375 975.544 352.137 976.383 349.227H984.609C983.378 353.927 980.916 357.705 977.222 360.559C973.529 363.356 968.913 364.755 963.373 364.755C959.008 364.755 955.119 363.776 951.705 361.818C948.348 359.859 945.717 357.089 943.815 353.508C941.912 349.926 940.961 345.729 940.961 340.917ZM1016.12 364.755C1012.6 364.755 1009.43 364.168 1006.64 362.993C1003.84 361.762 1001.63 360.083 1000.01 357.956C998.382 355.774 997.487 353.284 997.319 350.486H1005.21C1005.43 352.78 1006.5 354.655 1008.4 356.11C1010.36 357.565 1012.9 358.292 1016.04 358.292C1018.95 358.292 1021.24 357.649 1022.92 356.362C1024.6 355.075 1025.44 353.452 1025.44 351.493C1025.44 349.479 1024.54 347.996 1022.75 347.044C1020.96 346.037 1018.19 345.058 1014.44 344.107C1011.03 343.211 1008.23 342.316 1006.05 341.42C1003.92 340.469 1002.08 339.098 1000.51 337.307C998.998 335.461 998.243 333.055 998.243 330.089C998.243 327.738 998.942 325.584 1000.34 323.625C1001.74 321.667 1003.73 320.128 1006.3 319.009C1008.87 317.834 1011.81 317.246 1015.11 317.246C1020.21 317.246 1024.32 318.533 1027.45 321.107C1030.59 323.681 1032.27 327.207 1032.49 331.684H1024.85C1024.68 329.277 1023.7 327.347 1021.91 325.892C1020.18 324.437 1017.83 323.709 1014.86 323.709C1012.12 323.709 1009.94 324.297 1008.32 325.472C1006.69 326.647 1005.88 328.186 1005.88 330.089C1005.88 331.6 1006.36 332.859 1007.31 333.866C1008.32 334.817 1009.55 335.601 1011 336.216C1012.51 336.776 1014.58 337.419 1017.21 338.147C1020.51 339.042 1023.2 339.938 1025.27 340.833C1027.34 341.672 1029.1 342.959 1030.56 344.694C1032.07 346.429 1032.85 348.695 1032.91 351.493C1032.91 354.011 1032.21 356.278 1030.81 358.292C1029.41 360.307 1027.43 361.902 1024.85 363.077C1022.33 364.196 1019.42 364.755 1016.12 364.755Z" fill="white"/>
</g>
</g>
<defs>
<filter id="filter0_f_1_5" x="-168.788" y="441.475" width="471.576" height="525.56" filterUnits="userSpaceOnUse" color-interpolation-filters="sRGB">
<feFlood flood-opacity="0" result="BackgroundImageFix"/>
<feBlend mode="normal" in="SourceGraphic" in2="BackgroundImageFix" result="shape"/>
<feGaussianBlur stdDeviation="60.323" result="effect1_foregroundBlur_1_5"/>
</filter>
<filter id="filter1_f_1_5" x="-406.051" y="130.203" width="671.103" height="727.621" filterUnits="userSpaceOnUse" color-interpolation-filters="sRGB">
<feFlood flood-opacity="0" result="BackgroundImageFix"/>
<feBlend mode="normal" in="SourceGraphic" in2="BackgroundImageFix" result="shape"/>
<feGaussianBlur stdDeviation="60.323" result="effect1_foregroundBlur_1_5"/>
</filter>
<filter id="filter2_f_1_5" x="775.189" y="-1.95189" width="1291.42" height="1399.02" filterUnits="userSpaceOnUse" color-interpolation-filters="sRGB">
<feFlood flood-opacity="0" result="BackgroundImageFix"/>
<feBlend mode="normal" in="SourceGraphic" in2="BackgroundImageFix" result="shape"/>
<feGaussianBlur stdDeviation="60.323" result="effect1_foregroundBlur_1_5"/>
</filter>
<filter id="filter3_d_1_5" x="112.408" y="139.974" width="254.057" height="246.966" filterUnits="userSpaceOnUse" color-interpolation-filters="sRGB">
<feFlood flood-opacity="0" result="BackgroundImageFix"/>
<feColorMatrix in="SourceAlpha" type="matrix" values="0 0 0 0 0 0 0 0 0 0 0 0 0 0 0 0 0 0 127 0" result="hardAlpha"/>
<feOffset dx="-9.39095" dy="9.39095"/>
<feGaussianBlur stdDeviation="18.7819"/>
<feColorMatrix type="matrix" values="0 0 0 0 0 0 0 0 0 0 0 0 0 0 0 0 0 0 0.573674 0"/>
<feBlend mode="normal" in2="BackgroundImageFix" result="effect1_dropShadow_1_5"/>
<feBlend mode="normal" in="SourceGraphic" in2="effect1_dropShadow_1_5" result="shape"/>
</filter>
<filter id="filter4_d_1_5" x="333.099" y="287.686" width="180.914" height="203.256" filterUnits="userSpaceOnUse" color-interpolation-filters="sRGB">
<feFlood flood-opacity="0" result="BackgroundImageFix"/>
<feColorMatrix in="SourceAlpha" type="matrix" values="0 0 0 0 0 0 0 0 0 0 0 0 0 0 0 0 0 0 127 0" result="hardAlpha"/>
<feOffset dx="-18.7819" dy="9.39095"/>
<feGaussianBlur stdDeviation="17.2167"/>
<feColorMatrix type="matrix" values="0 0 0 0 0 0 0 0 0 0 0 0 0 0 0 0 0 0 0.165981 0"/>
<feBlend mode="normal" in2="BackgroundImageFix" result="effect1_dropShadow_1_5"/>
<feBlend mode="normal" in="SourceGraphic" in2="effect1_dropShadow_1_5" result="shape"/>
</filter>
<filter id="filter5_d_1_5" x="174.249" y="170.513" width="335.132" height="369.95" filterUnits="userSpaceOnUse" color-interpolation-filters="sRGB">
<feFlood flood-opacity="0" result="BackgroundImageFix"/>
<feColorMatrix in="SourceAlpha" type="matrix" values="0 0 0 0 0 0 0 0 0 0 0 0 0 0 0 0 0 0 127 0" result="hardAlpha"/>
<feOffset dx="6.26063" dy="25.0425"/>
<feGaussianBlur stdDeviation="23.4774"/>
<feColorMatrix type="matrix" values="0 0 0 0 0 0 0 0 0 0 0 0 0 0 0 0 0 0 0.65281 0"/>
<feBlend mode="normal" in2="BackgroundImageFix" result="effect1_dropShadow_1_5"/>
<feBlend mode="normal" in="SourceGraphic" in2="effect1_dropShadow_1_5" result="shape"/>
</filter>
<filter id="filter6_f_1_5" x="157.881" y="213.964" width="238.77" height="196.184" filterUnits="userSpaceOnUse" color-interpolation-filters="sRGB">
<feFlood flood-opacity="0" result="BackgroundImageFix"/>
<feBlend mode="normal" in="SourceGraphic" in2="BackgroundImageFix" result="shape"/>
<feGaussianBlur stdDeviation="19.1454" result="effect1_foregroundBlur_1_5"/>
</filter>
<filter id="filter7_f_1_5" x="287.083" y="214.568" width="221.185" height="329.299" filterUnits="userSpaceOnUse" color-interpolation-filters="sRGB">
<feFlood flood-opacity="0" result="BackgroundImageFix"/>
<feBlend mode="normal" in="SourceGraphic" in2="BackgroundImageFix" result="shape"/>
<feGaussianBlur stdDeviation="19.1454" result="effect1_foregroundBlur_1_5"/>
</filter>
<filter id="filter8_f_1_5" x="138.703" y="122.221" width="372" height="371.625" filterUnits="userSpaceOnUse" color-interpolation-filters="sRGB">
<feFlood flood-opacity="0" result="BackgroundImageFix"/>
<feBlend mode="normal" in="SourceGraphic" in2="BackgroundImageFix" result="shape"/>
<feGaussianBlur stdDeviation="31.9091" result="effect1_foregroundBlur_1_5"/>
</filter>
<filter id="filter9_d_1_5" x="134.971" y="404.996" width="177.82" height="194.758" filterUnits="userSpaceOnUse" color-interpolation-filters="sRGB">
<feFlood flood-opacity="0" result="BackgroundImageFix"/>
<feColorMatrix in="SourceAlpha" type="matrix" values="0 0 0 0 0 0 0 0 0 0 0 0 0 0 0 0 0 0 127 0" result="hardAlpha"/>
<feOffset dx="-9.39095" dy="9.39095"/>
<feGaussianBlur stdDeviation="18.7819"/>
<feColorMatrix type="matrix" values="0 0 0 0 1 0 0 0 0 0.0945956 0 0 0 0 0.719394 0 0 0 0.630555 0"/>
<feBlend mode="normal" in2="BackgroundImageFix" result="effect1_dropShadow_1_5"/>
<feBlend mode="normal" in="SourceGraphic" in2="effect1_dropShadow_1_5" result="shape"/>
</filter>
<filter id="filter10_f_1_5" x="456.63" y="321.308" width="721.648" height="344.48" filterUnits="userSpaceOnUse" color-interpolation-filters="sRGB">
<feFlood flood-opacity="0" result="BackgroundImageFix"/>
<feBlend mode="normal" in="SourceGraphic" in2="BackgroundImageFix" result="shape"/>
<feGaussianBlur stdDeviation="75.9623" result="effect1_foregroundBlur_1_5"/>
</filter>
<filter id="filter11_ddd_1_5" x="651.889" y="404" width="345.63" height="90" filterUnits="userSpaceOnUse" color-interpolation-filters="sRGB">
<feFlood flood-opacity="0" result="BackgroundImageFix"/>
<feColorMatrix in="SourceAlpha" type="matrix" values="0 0 0 0 0 0 0 0 0 0 0 0 0 0 0 0 0 0 127 0" result="hardAlpha"/>
<feOffset dy="4"/>
<feGaussianBlur stdDeviation="2"/>
<feComposite in2="hardAlpha" operator="out"/>
<feColorMatrix type="matrix" values="0 0 0 0 0 0 0 0 0 0 0 0 0 0 0 0 0 0 0.25 0"/>
<feBlend mode="normal" in2="BackgroundImageFix" result="effect1_dropShadow_1_5"/>
<feColorMatrix in="SourceAlpha" type="matrix" values="0 0 0 0 0 0 0 0 0 0 0 0 0 0 0 0 0 0 127 0" result="hardAlpha"/>
<feOffset dy="4"/>
<feGaussianBlur stdDeviation="2"/>
<feComposite in2="hardAlpha" operator="out"/>
<feColorMatrix type="matrix" values="0 0 0 0 0 0 0 0 0 0 0 0 0 0 0 0 0 0 0.25 0"/>
<feBlend mode="normal" in2="effect1_dropShadow_1_5" result="effect2_dropShadow_1_5"/>
<feColorMatrix in="SourceAlpha" type="matrix" values="0 0 0 0 0 0 0 0 0 0 0 0 0 0 0 0 0 0 127 0" result="hardAlpha"/>
<feOffset dx="3" dy="4"/>
<feGaussianBlur stdDeviation="5.5"/>
<feComposite in2="hardAlpha" operator="out"/>
<feColorMatrix type="matrix" values="0 0 0 0 0 0 0 0 0 0 0 0 0 0 0 0 0 0 0.25 0"/>
<feBlend mode="normal" in2="effect2_dropShadow_1_5" result="effect3_dropShadow_1_5"/>
<feBlend mode="normal" in="SourceGraphic" in2="effect3_dropShadow_1_5" result="shape"/>
</filter>
<filter id="filter12_b_1_5" x="627.064" y="378.175" width="389.279" height="133.649" filterUnits="userSpaceOnUse" color-interpolation-filters="sRGB">
<feFlood flood-opacity="0" result="BackgroundImageFix"/>
<feGaussianBlur in="BackgroundImage" stdDeviation="16.4123"/>
<feComposite in2="SourceAlpha" operator="in" result="effect1_backgroundBlur_1_5"/>
<feBlend mode="normal" in="SourceGraphic" in2="effect1_backgroundBlur_1_5" result="shape"/>
</filter>
<filter id="filter13_d_1_5" x="696.053" y="430.834" width="260.299" height="25.5996" filterUnits="userSpaceOnUse" color-interpolation-filters="sRGB">
<feFlood flood-opacity="0" result="BackgroundImageFix"/>
<feColorMatrix in="SourceAlpha" type="matrix" values="0 0 0 0 0 0 0 0 0 0 0 0 0 0 0 0 0 0 127 0" result="hardAlpha"/>
<feOffset dx="2.37037" dy="1.18519"/>
<feGaussianBlur stdDeviation="0.592593"/>
<feComposite in2="hardAlpha" operator="out"/>
<feColorMatrix type="matrix" values="0 0 0 0 0.843164 0 0 0 0 0.474152 0 0 0 0 0.739841 0 0 0 0.21 0"/>
<feBlend mode="normal" in2="BackgroundImageFix" result="effect1_dropShadow_1_5"/>
<feBlend mode="normal" in="SourceGraphic" in2="effect1_dropShadow_1_5" result="shape"/>
</filter>
<filter id="filter14_d_1_5" x="582.695" y="194.765" width="499.635" height="198.891" filterUnits="userSpaceOnUse" color-interpolation-filters="sRGB">
<feFlood flood-opacity="0" result="BackgroundImageFix"/>
<feColorMatrix in="SourceAlpha" type="matrix" values="0 0 0 0 0 0 0 0 0 0 0 0 0 0 0 0 0 0 127 0" result="hardAlpha"/>
<feOffset dx="8" dy="4"/>
<feGaussianBlur stdDeviation="2"/>
<feComposite in2="hardAlpha" operator="out"/>
<feColorMatrix type="matrix" values="0 0 0 0 0.843164 0 0 0 0 0.474152 0 0 0 0 0.739841 0 0 0 0.21 0"/>
<feBlend mode="normal" in2="BackgroundImageFix" result="effect1_dropShadow_1_5"/>
<feBlend mode="normal" in="SourceGraphic" in2="effect1_dropShadow_1_5" result="shape"/>
</filter>
<linearGradient id="paint0_linear_1_5" x1="-0.0199334" y1="719.996" x2="615.293" y2="-373.897" gradientUnits="userSpaceOnUse">
<stop stop-color="#000B2A"/>
<stop offset="1" stop-color="#011E4C"/>
</linearGradient>
<radialGradient id="paint1_radial_1_5" cx="0" cy="0" r="1" gradientUnits="userSpaceOnUse" gradientTransform="translate(22.7168 753.36) rotate(-77.8648) scale(76.1853 74.6191)">
<stop stop-color="#444CE4"/>
<stop offset="1" stop-color="#F257A0"/>
</radialGradient>
<radialGradient id="paint2_radial_1_5" cx="0" cy="0" r="1" gradientUnits="userSpaceOnUse" gradientTransform="translate(43.0979 471.402) rotate(156.091) scale(201.377 213.361)">
<stop stop-color="#FFD7D7"/>
<stop offset="0.0001"/>
<stop offset="0.778467" stop-color="#6343FF"/>
<stop offset="1" stop-color="#484EB7" stop-opacity="0"/>
<stop offset="1" stop-color="#EE8969" stop-opacity="0"/>
</radialGradient>
<radialGradient id="paint3_radial_1_5" cx="0" cy="0" r="1" gradientUnits="userSpaceOnUse" gradientTransform="translate(1656.06 541.786) rotate(133.863) scale(481.12 518.147)">
<stop stop-color="#FFD7D7"/>
<stop offset="0.0001"/>
<stop offset="0.778467" stop-color="#6343FF"/>
<stop offset="1" stop-color="#484EB7" stop-opacity="0"/>
<stop offset="1" stop-color="#EE8969" stop-opacity="0"/>
</radialGradient>
<linearGradient id="paint4_linear_1_5" x1="109.985" y1="219.48" x2="211.328" y2="363.654" gradientUnits="userSpaceOnUse">
<stop stop-color="#A760FF"/>
<stop offset="1" stop-color="#3430FF"/>
</linearGradient>
<linearGradient id="paint5_linear_1_5" x1="386.314" y1="312.728" x2="386.314" y2="447.117" gradientUnits="userSpaceOnUse">
<stop stop-color="#FFF264"/>
<stop offset="1" stop-color="#FFB334"/>
</linearGradient>
<linearGradient id="paint6_linear_1_5" x1="282.176" y1="184.93" x2="268.683" y2="440.446" gradientUnits="userSpaceOnUse">
<stop stop-color="#FFFDF3" stop-opacity="0.282797"/>
<stop offset="0.382543" stop-color="#FEA6A6" stop-opacity="0.776647"/>
<stop offset="0.755261" stop-color="#FFCC8F" stop-opacity="0.536274"/>
<stop offset="1" stop-color="#FF80AE" stop-opacity="0.203274"/>
</linearGradient>
<linearGradient id="paint7_linear_1_5" x1="395.072" y1="286.258" x2="408.806" y2="289.855" gradientUnits="userSpaceOnUse">
<stop stop-color="#F2F3FA"/>
<stop offset="1" stop-color="#FFF6D3"/>
</linearGradient>
<linearGradient id="paint8_linear_1_5" x1="341.254" y1="331.505" x2="299.867" y2="390.612" gradientUnits="userSpaceOnUse">
<stop stop-color="#C5C6CD"/>
<stop offset="1" stop-color="#565D72"/>
</linearGradient>
<radialGradient id="paint9_radial_1_5" cx="0" cy="0" r="1" gradientUnits="userSpaceOnUse" gradientTransform="translate(181.05 546.002) rotate(-52.0101) scale(114.705 91.0568)">
<stop stop-color="#FF5555"/>
<stop offset="1" stop-color="#D800B9"/>
</radialGradient>
<radialGradient id="paint10_radial_1_5" cx="0" cy="0" r="1" gradientUnits="userSpaceOnUse" gradientTransform="translate(734.919 489.966) rotate(-9.59641) scale(85.3597 39.1326)">
<stop stop-color="#444CE4"/>
<stop offset="1" stop-color="#F257A0"/>
</radialGradient>
<linearGradient id="paint11_linear_1_5" x1="667.504" y1="419" x2="983.721" y2="427.159" gradientUnits="userSpaceOnUse">
<stop stop-color="#F6E18D"/>
<stop offset="0.557292" stop-color="#7F58C8"/>
<stop offset="1" stop-color="#FF258E"/>
</linearGradient>
<clipPath id="clip0_1_5">
<rect width="1280" height="720" rx="20" fill="white"/>
</clipPath>
</defs>
</svg>
